<svg width="104" height="105" viewBox="0 0 104 105" fill="none" xmlns="http://www.w3.org/2000/svg">
<g id="&#237;&#140;&#144;&#235;&#139;&#164; &#236;&#150;&#188;&#234;&#181;&#180;">
<g id="Group 22">
<rect id="Rectangle 7" y="0.984375" width="103.529" height="103.88" rx="28.9317" fill="#3692FF"/>
<g id="&#237;&#140;&#144;&#235;&#139;&#164; &#236;&#150;&#188;&#234;&#181;&#180;_2">
<g id="Group 16">
<g id="Group 23">
<g id="Group 1">
<path id="Ellipse 2" d="M49.9906 29.9061C51.283 34.372 47.866 39.2931 43.9492 40.4342C40.0324 41.5753 34.6813 39.2086 33.389 34.7427C32.0967 30.2767 34.8096 24.0888 38.7264 22.9477C43.9492 21.4262 48.6983 25.4401 49.9906 29.9061Z" fill="#222327"/>
<path id="Ellipse 3" d="M52.1441 29.9061C50.8518 34.372 54.2688 39.2931 58.1856 40.4342C62.1024 41.5753 67.4535 39.2086 68.7458 34.7427C70.0381 30.2767 67.3252 24.0888 63.4084 22.9477C58.1856 21.4262 53.4364 25.4401 52.1441 29.9061Z" fill="#222327"/>
</g>
<path id="Ellipse 2_2" d="M76.3971 62.5322C76.3971 73.8915 65.2589 78.1139 50.0657 78.1139C34.8725 78.1139 23.9863 73.8915 23.9863 62.5322C23.9863 49.319 34.8725 37.6016 50.0657 37.6016C65.2589 37.6016 76.3971 48.3217 76.3971 62.5322Z" fill="#F3D6DD"/>
<g id="Group 4">
<path id="Ellipse 4" d="M45.0365 60.2896C45.0365 64.01 42.6485 68.0912 39.3115 68.0912C35.9745 68.0912 30.584 65.0599 30.584 59.5025C30.584 54.282 36.4074 52.4253 42.4249 53.3786C46.1131 53.9629 45.0365 56.5693 45.0365 60.2896Z" fill="#222327"/>
<path id="Ellipse 6" d="M42.2455 59.9138C42.2455 60.4718 42.0777 60.9242 41.2385 60.9242C40.3993 60.9242 40.2314 60.4718 40.2314 59.9138C40.2314 59.3557 40.5671 58.9033 41.2385 58.9033C41.9098 58.9033 42.2455 59.3557 42.2455 59.9138Z" fill="white"/>
</g>
<g id="Group 5">
<path id="Ellipse 7" d="M55.1872 60.2896C55.1872 64.01 57.5751 68.0912 60.9121 68.0912C64.2491 68.0912 69.6396 65.0599 69.6396 59.5025C69.6396 54.282 63.8162 52.4253 57.7987 53.3786C54.1105 53.9629 55.1872 56.5693 55.1872 60.2896Z" fill="#222327"/>
<path id="Ellipse 8" d="M57.982 59.9138C57.982 60.4718 58.1499 60.9242 58.9891 60.9242C59.8283 60.9242 59.9961 60.4718 59.9961 59.9138C59.9961 59.3557 59.6604 58.9033 58.9891 58.9033C58.3177 58.9033 57.982 59.3557 57.982 59.9138Z" fill="white"/>
</g>
<g id="Group 6">
<path id="Vector 9" d="M46.2655 65.6708C46.0623 65.3742 45.6572 65.2985 45.3606 65.5018C45.064 65.705 44.9883 66.1101 45.1915 66.4067L46.2655 65.6708ZM49.999 64.8701L50.6148 64.6591C50.5247 64.396 50.2772 64.2192 49.999 64.2192C49.7208 64.2192 49.4734 64.396 49.3832 64.6591L49.999 64.8701ZM54.8065 66.4067C55.0097 66.1101 54.934 65.705 54.6375 65.5018C54.3409 65.2985 53.9357 65.3742 53.7325 65.6708L54.8065 66.4067ZM45.1915 66.4067C45.3714 66.6691 45.698 67.021 46.136 67.3116C46.5781 67.6048 47.1686 67.8583 47.8638 67.8583V66.5564C47.4913 66.5564 47.1477 66.4204 46.8557 66.2267C46.5598 66.0303 46.3526 65.7979 46.2655 65.6708L45.1915 66.4067ZM47.8638 67.8583C48.7192 67.8583 49.3555 67.2481 49.7515 66.7227C50.1696 66.1679 50.4651 65.5182 50.6148 65.0811L49.3832 64.6591C49.266 65.0012 49.0277 65.52 48.7118 65.9391C48.3738 66.3876 48.0759 66.5564 47.8638 66.5564V67.8583ZM49.3832 65.0811C49.5329 65.5182 49.8284 66.1679 50.2465 66.7227C50.6425 67.2481 51.2788 67.8583 52.1343 67.8583V66.5564C51.9221 66.5564 51.6242 66.3876 51.2862 65.9391C50.9703 65.52 50.732 65.0012 50.6148 64.6591L49.3832 65.0811ZM52.1343 67.8583C52.8294 67.8583 53.42 67.6048 53.862 67.3116C54.3 67.021 54.6267 66.6691 54.8065 66.4067L53.7325 65.6708C53.6455 65.7979 53.4383 66.0303 53.1423 66.2267C52.8504 66.4204 52.5068 66.5564 52.1343 66.5564V67.8583Z" fill="#222327"/>
<path id="Ellipse 8_2" d="M53.5531 64.2691C53.5531 64.8106 51.1149 65.4998 50.2943 65.7165C50.1189 65.7628 49.9381 65.7628 49.7627 65.7165C48.9421 65.4998 46.5039 64.8106 46.5039 64.2691C46.5039 63.6181 48.4527 62.9219 50.0285 62.9219C51.6043 62.9219 53.5531 63.6181 53.5531 64.2691Z" fill="#222327"/>
</g>
<path id="Vector 11" d="M49.6071 46.9512C39.8126 46.9512 36.2132 43.5103 35.6309 41.4976L40.2896 36.4336L50.3835 34.6807L64.3597 41.4976C63.5185 43.1207 59.4123 46.9512 49.6071 46.9512Z" fill="#222327"/>
<path id="Subtract" fill-rule="evenodd" clip-rule="evenodd" d="M50.9631 83.7631C71.2031 83.7631 86.0411 78.0587 86.0411 62.7124C86.0411 43.5141 71.2031 29.0312 50.9631 29.0312C30.723 29.0312 16.2207 44.8614 16.2207 62.7124C16.2207 78.0587 30.723 83.7631 50.9631 83.7631ZM50.1675 77.8696C65.0556 77.8696 75.9701 73.6922 75.9701 62.454C75.9701 48.395 65.0556 37.7891 50.1675 37.7891C35.2794 37.7891 24.6118 49.3816 24.6118 62.454C24.6118 73.6922 35.2794 77.8696 50.1675 77.8696Z" fill="white"/>
</g>
</g>
</g>
</g>
</g>
</svg>
