<svg width="196" height="196" viewBox="0 0 196 196" fill="none" xmlns="http://www.w3.org/2000/svg">
<path d="M86.0459 52.337C89.2258 60.552 83.5632 70.4013 76.334 73.1996C69.1048 75.9979 58.5841 72.4129 55.4042 64.1979C52.2243 55.9828 56.3458 43.8588 63.575 41.0605C73.2147 37.3292 82.866 44.122 86.0459 52.337Z" fill="#D1D5DB"/>
<path d="M90.1223 51.9828C88.4082 60.6234 95.6859 69.3474 103.29 70.8558C110.893 72.3643 120.637 67.017 122.351 58.3764C124.065 49.7358 117.913 38.5052 110.309 36.9968C100.17 34.9854 91.8364 43.3422 90.1223 51.9828Z" fill="#D1D5DB"/>
<path d="M164.865 114.979C164.865 144.048 136.663 154.854 98.194 154.854C59.7246 154.854 32.1606 144.048 32.1606 114.979C32.1606 81.1645 59.7246 51.1783 98.194 51.1783C136.663 51.1783 164.865 78.6125 164.865 114.979Z" fill="#F3F4F6"/>
<path d="M146.762 114.644C146.762 135.954 127.003 143.876 100.051 143.876C73.0993 143.876 53.7878 135.954 53.7878 114.644C53.7878 89.8556 73.0993 67.8734 100.051 67.8734C127.003 67.8734 146.762 87.9848 146.762 114.644Z" fill="#F9FAFB"/>
<path d="M97.5075 111.671C97.5075 118.718 93.2102 126.449 87.2051 126.449C81.2 126.449 71.4993 120.707 71.4993 110.18C71.4993 100.291 81.9789 96.7739 92.8078 98.5798C99.4449 99.6866 97.5075 104.624 97.5075 111.671Z" fill="#D1D5DB"/>
<path d="M92.485 110.959C92.485 112.016 92.183 112.873 90.6728 112.873C89.1626 112.873 88.8606 112.016 88.8606 110.959C88.8606 109.902 89.4647 109.045 90.6728 109.045C91.8809 109.045 92.485 109.902 92.485 110.959Z" fill="#F3F4F6"/>
<path d="M115.278 111.671C115.278 118.718 119.261 126.449 124.827 126.449C130.393 126.449 139.385 120.707 139.385 110.18C139.385 100.291 129.671 96.774 119.634 98.5799C113.482 99.6868 115.278 104.624 115.278 111.671Z" fill="#D1D5DB"/>
<path d="M119.934 110.959C119.934 112.016 120.214 112.873 121.614 112.873C123.014 112.873 123.293 112.016 123.293 110.959C123.293 109.902 122.734 109.045 121.614 109.045C120.494 109.045 119.934 109.902 119.934 110.959Z" fill="#F3F4F6"/>
<path d="M99.7131 121.936C99.3668 121.432 98.6777 121.304 98.174 121.651C97.6702 121.997 97.5426 122.686 97.889 123.19L99.7131 121.936ZM106.918 120.349L107.965 119.989C107.811 119.542 107.39 119.242 106.918 119.242C106.445 119.242 106.025 119.542 105.871 119.989L106.918 120.349ZM115.947 123.19C116.293 122.686 116.165 121.997 115.662 121.651C115.158 121.304 114.469 121.432 114.122 121.936L115.947 123.19ZM97.889 123.19C98.2218 123.674 98.8308 124.329 99.6491 124.87C100.474 125.415 101.571 125.883 102.859 125.883V123.67C102.118 123.67 101.44 123.4 100.87 123.023C100.293 122.642 99.8876 122.189 99.7131 121.936L97.889 123.19ZM102.859 125.883C104.419 125.883 105.595 124.772 106.342 123.784C107.127 122.746 107.683 121.528 107.965 120.709L105.871 119.989C105.645 120.646 105.187 121.641 104.576 122.449C103.929 123.305 103.329 123.67 102.859 123.67V125.883ZM105.871 120.709C106.153 121.528 106.709 122.746 107.493 123.784C108.241 124.772 109.416 125.883 110.976 125.883V123.67C110.507 123.67 109.907 123.305 109.259 122.449C108.649 121.641 108.19 120.646 107.965 119.989L105.871 120.709ZM110.976 125.883C112.264 125.883 113.361 125.415 114.187 124.87C115.005 124.329 115.614 123.674 115.947 123.19L114.122 121.936C113.948 122.189 113.542 122.642 112.966 123.023C112.396 123.4 111.717 123.67 110.976 123.67V125.883Z" fill="#D1D5DB"/>
<path d="M113.675 119.211C113.675 120.249 108.933 121.573 107.429 121.967C107.131 122.045 106.821 122.045 106.524 121.967C105.019 121.573 100.277 120.249 100.277 119.211C100.277 117.978 103.981 116.659 106.976 116.659C109.971 116.659 113.675 117.978 113.675 119.211Z" fill="#D1D5DB"/>
<path d="M107.959 85.351C79.4856 87.1412 72.5407 78.052 71.499 74.217L87.4721 65.3097L105.529 61.9695L130.53 74.9592C129.025 78.052 125.469 84.2502 107.959 85.351Z" fill="#D1D5DB"/>
<path fill-rule="evenodd" clip-rule="evenodd" d="M101.648 154.946C138.126 154.946 164.868 144.14 164.868 115.071C164.868 78.7045 138.126 51.2703 101.648 51.2703C65.1699 51.2703 39.0327 81.2565 39.0327 115.071C39.0327 144.14 65.1699 154.946 101.648 154.946ZM100.214 143.781C127.047 143.781 146.717 135.868 146.717 114.58C146.717 87.9491 127.047 67.8589 100.214 67.8589C73.3817 67.8589 54.1558 89.818 54.1558 114.58C54.1558 135.868 73.3817 143.781 100.214 143.781Z" fill="#F3F4F6"/>
<path fill-rule="evenodd" clip-rule="evenodd" d="M24.1065 91.1729C28.1518 86.6433 35.4429 87.3947 38.4795 92.6541L42.9266 100.357C45.9631 105.616 42.9683 112.306 37.0229 113.545L35.0892 113.947C34.9785 113.971 34.8678 113.991 34.757 114.01C34.7153 114.125 34.6623 114.237 34.6001 114.344C32.8394 117.371 32.0011 124.344 40.6765 132.414C49.1296 140.277 56.4369 140.849 59.8006 140.009C60.0392 139.95 60.2871 139.933 60.5262 139.963L60.9665 139.09C63.7016 133.668 70.9387 132.506 75.233 136.801L81.5222 143.09C85.8165 147.384 84.6552 154.621 79.2329 157.357L78.8262 157.562C78.7148 157.738 78.5559 157.892 78.3494 158.004C67.6399 163.816 43.5652 161.006 30.3966 142.694C13.9143 119.773 15.5748 100.285 22.0736 93.3311C22.1843 93.2126 22.3105 93.1216 22.4454 93.0569C22.5559 92.9172 22.671 92.7802 22.7908 92.6461L24.1065 91.1729Z" fill="#D1D5DB"/>
<path d="M151.651 49.4413C153.411 45.4393 154.988 44.6467 157.407 44.2837C159.285 43.9799 160.807 43.5393 161.459 42.1019C162.078 40.6499 161.355 39.1827 159.92 38.5712C158.516 37.9337 156.799 38.3677 156.028 40.0303L150.747 37.7076C152.954 32.8712 157.529 32.2476 161.896 34.1686C166.712 36.2868 169.16 40.1382 167.321 44.3634C166.07 47.1626 163.84 48.2229 161.03 48.5727C158.777 48.83 157.477 49.4871 156.533 51.5887L156.328 52.0537L151.446 49.9063L151.651 49.4413ZM148.936 54.3515C149.619 52.7095 151.581 51.9872 153.225 52.7103C154.819 53.4115 155.647 55.3609 154.947 56.9956C154.193 58.6655 152.19 59.3897 150.596 58.6885C148.952 57.9654 148.165 56.0141 148.936 54.3515Z" fill="#D1D5DB"/>
<path d="M167.617 61.1127C169.942 58.7129 171.283 58.5643 173.113 58.9473C174.539 59.2288 175.747 59.3176 176.596 58.4609C177.426 57.585 177.298 56.3417 176.432 55.5218C175.596 54.6917 174.25 54.5462 173.255 55.5327L170.089 52.4644C172.956 49.5854 176.4 50.3548 179.019 52.8924C181.907 55.6905 182.637 59.1012 180.196 61.6401C178.555 63.3133 176.675 63.4802 174.569 62.9839C172.886 62.5691 171.78 62.6944 170.544 63.9494L170.274 64.2282L167.347 61.3915L167.617 61.1127ZM164.366 63.9095C165.292 62.9143 166.89 62.9186 167.876 63.8738C168.832 64.8001 168.907 66.4168 167.971 67.4023C166.986 68.3984 165.359 68.3848 164.403 67.4586C163.417 66.5033 163.372 64.8959 164.366 63.9095Z" fill="#D1D5DB"/>
</svg>
