<svg width="20" height="18" viewBox="0 0 20 18" fill="none" xmlns="http://www.w3.org/2000/svg">
<g id="Group 33736">
<path id="Vector 682" d="M3.5332 0.600122C3.03615 0.600122 2.6332 1.00307 2.6332 1.50012C2.6332 1.99718 3.03615 2.40012 3.5332 2.40012V0.600122ZM3.5332 2.40012H13.6665V0.600122H3.5332V2.40012ZM18.0999 6.83345V7.90012H19.8999V6.83345H18.0999ZM13.6665 12.3335H3.5332V14.1335H13.6665V12.3335ZM18.0999 7.90012C18.0999 10.3486 16.115 12.3335 13.6665 12.3335V14.1335C17.1091 14.1335 19.8999 11.3427 19.8999 7.90012H18.0999ZM13.6665 2.40012C16.115 2.40012 18.0999 4.38499 18.0999 6.83345H19.8999C19.8999 3.39088 17.1091 0.600122 13.6665 0.600122V2.40012Z" fill="white"/>
<path id="Polygon 2" d="M-1.86502e-07 13.2335L7.2 9.53841L7.2 16.9285L-1.86502e-07 13.2335Z" fill="white"/>
</g>
</svg>
