<svg width="196" height="196" viewBox="0 0 196 196" fill="none" xmlns="http://www.w3.org/2000/svg">
<path d="M86.0466 52.3367C89.2265 60.5517 83.564 70.401 76.3348 73.1994C69.1055 75.9977 58.5849 72.4126 55.405 64.1976C52.2251 55.9826 56.3465 43.8586 63.5757 41.0603C73.2154 37.3289 82.8667 44.1217 86.0466 52.3367Z" fill="#D1D5DB"/>
<path d="M90.1228 51.9826C88.4086 60.6232 95.6864 69.3472 103.29 70.8556C110.894 72.364 120.638 67.0167 122.352 58.3761C124.066 49.7355 117.914 38.505 110.31 36.9966C100.171 34.9852 91.8369 43.342 90.1228 51.9826Z" fill="#D1D5DB"/>
<path d="M164.866 114.979C164.866 144.048 136.664 154.854 98.1945 154.854C59.7251 154.854 32.1611 144.048 32.1611 114.979C32.1611 81.1644 59.7251 51.1782 98.1945 51.1782C136.664 51.1782 164.866 78.6124 164.866 114.979Z" fill="#F3F4F6"/>
<path d="M146.762 114.644C146.762 135.954 127.003 143.876 100.051 143.876C73.0996 143.876 53.7881 135.954 53.7881 114.644C53.7881 89.8555 73.0996 67.8733 100.051 67.8733C127.003 67.8733 146.762 87.9847 146.762 114.644Z" fill="#F9FAFB"/>
<path d="M97.5082 111.671C97.5082 118.718 93.211 126.449 87.2058 126.449C81.2007 126.449 71.5 120.707 71.5 110.18C71.5 100.291 81.9796 96.7739 92.8086 98.5798C99.4457 99.6866 97.5082 104.624 97.5082 111.671Z" fill="#D1D5DB"/>
<path d="M92.4857 110.959C92.4857 112.016 92.1837 112.873 90.6735 112.873C89.1634 112.873 88.8613 112.016 88.8613 110.959C88.8613 109.902 89.4654 109.045 90.6735 109.045C91.8817 109.045 92.4857 109.902 92.4857 110.959Z" fill="#F3F4F6"/>
<path d="M115.279 111.671C115.279 118.718 119.262 126.449 124.828 126.449C130.394 126.449 139.386 120.707 139.386 110.18C139.386 100.291 129.672 96.7741 119.635 98.58C113.484 99.6868 115.279 104.624 115.279 111.671Z" fill="#D1D5DB"/>
<path d="M119.935 110.959C119.935 112.016 120.215 112.873 121.614 112.873C123.014 112.873 123.294 112.016 123.294 110.959C123.294 109.902 122.734 109.045 121.614 109.045C120.494 109.045 119.935 109.902 119.935 110.959Z" fill="#F3F4F6"/>
<path d="M99.7138 121.936C99.3675 121.432 98.6784 121.304 98.1747 121.651C97.671 121.997 97.5434 122.686 97.8897 123.19L99.7138 121.936ZM106.919 120.349L107.965 119.989C107.812 119.542 107.391 119.242 106.919 119.242C106.446 119.242 106.025 119.542 105.872 119.989L106.919 120.349ZM115.947 123.19C116.294 122.686 116.166 121.997 115.662 121.651C115.159 121.304 114.47 121.432 114.123 121.936L115.947 123.19ZM97.8897 123.19C98.2225 123.674 98.8315 124.329 99.6498 124.87C100.475 125.415 101.572 125.883 102.86 125.883V123.67C102.119 123.67 101.441 123.4 100.871 123.023C100.294 122.642 99.8883 122.19 99.7138 121.936L97.8897 123.19ZM102.86 125.883C104.42 125.883 105.595 124.772 106.343 123.784C107.128 122.746 107.684 121.528 107.965 120.709L105.872 119.989C105.646 120.646 105.188 121.642 104.577 122.449C103.93 123.305 103.329 123.67 102.86 123.67V125.883ZM105.872 120.709C106.153 121.528 106.709 122.746 107.494 123.784C108.242 124.772 109.417 125.883 110.977 125.883V123.67C110.508 123.67 109.907 123.305 109.26 122.449C108.65 121.642 108.191 120.646 107.965 119.989L105.872 120.709ZM110.977 125.883C112.265 125.883 113.362 125.415 114.187 124.87C115.005 124.329 115.615 123.674 115.947 123.19L114.123 121.936C113.949 122.19 113.543 122.642 112.966 123.023C112.396 123.4 111.718 123.67 110.977 123.67V125.883Z" fill="#D1D5DB"/>
<path d="M113.675 119.211C113.675 120.249 108.934 121.573 107.429 121.967C107.131 122.045 106.821 122.045 106.524 121.967C105.019 121.573 100.277 120.249 100.277 119.211C100.277 117.978 103.981 116.659 106.976 116.659C109.971 116.659 113.675 117.978 113.675 119.211Z" fill="#D1D5DB"/>
<path d="M107.959 85.351C79.4856 87.1412 72.5407 78.052 71.499 74.217L87.4721 65.3097L105.529 61.9695L130.53 74.9592C129.025 78.052 125.469 84.2502 107.959 85.351Z" fill="#D1D5DB"/>
<path fill-rule="evenodd" clip-rule="evenodd" d="M101.648 154.946C138.126 154.946 164.869 144.14 164.869 115.071C164.869 78.7044 138.126 51.2703 101.648 51.2703C65.1704 51.2703 39.0332 81.2564 39.0332 115.071C39.0332 144.14 65.1704 154.946 101.648 154.946ZM100.215 143.781C127.047 143.781 146.718 135.868 146.718 114.58C146.718 87.949 127.047 67.8588 100.215 67.8588C73.3822 67.8588 54.1563 89.8179 54.1563 114.58C54.1563 135.868 73.3822 143.781 100.215 143.781Z" fill="#F3F4F6"/>
<path fill-rule="evenodd" clip-rule="evenodd" d="M24.1065 91.173C28.1518 86.6433 35.4429 87.3947 38.4795 92.6541L42.9266 100.357C45.9631 105.616 42.9683 112.306 37.0229 113.545L35.0892 113.948C34.9785 113.971 34.8678 113.991 34.757 114.01C34.7153 114.125 34.6623 114.237 34.6001 114.344C32.8394 117.371 32.0011 124.344 40.6765 132.414C49.1296 140.277 56.4369 140.849 59.8006 140.009C60.0392 139.95 60.2871 139.933 60.5262 139.963L60.9665 139.09C63.7016 133.668 70.9387 132.507 75.233 136.801L81.5222 143.09C85.8165 147.384 84.6552 154.621 79.2329 157.357L78.8262 157.562C78.7148 157.738 78.5559 157.892 78.3494 158.004C67.6399 163.816 43.5652 161.006 30.3966 142.694C13.9143 119.773 15.5748 100.285 22.0736 93.3312C22.1843 93.2127 22.3105 93.1216 22.4454 93.057C22.5559 92.9173 22.671 92.7803 22.7908 92.6461L24.1065 91.173Z" fill="#D1D5DB"/>
<path d="M151.65 49.4414C153.411 45.4394 154.988 44.6468 157.407 44.2838C159.285 43.98 160.806 43.5395 161.458 42.102C162.077 40.65 161.355 39.1829 159.92 38.5713C158.515 37.9339 156.799 38.3678 156.028 40.0304L150.747 37.7077C152.953 32.8713 157.528 32.2477 161.896 34.1687C166.712 36.2869 169.16 40.1383 167.321 44.3636C166.07 47.1627 163.84 48.223 161.03 48.5728C158.777 48.8301 157.477 49.4872 156.533 51.5889L156.328 52.0538L151.446 49.9064L151.65 49.4414ZM148.936 54.3516C149.618 52.7096 151.581 51.9874 153.225 52.7105C154.819 53.4117 155.646 55.361 154.947 56.9957C154.193 58.6656 152.19 59.3898 150.596 58.6887C148.952 57.9655 148.165 56.0142 148.936 54.3516Z" fill="#D1D5DB"/>
<path d="M167.617 61.1126C169.943 58.7128 171.284 58.5642 173.114 58.9472C174.54 59.2287 175.747 59.3175 176.597 58.4609C177.426 57.5849 177.299 56.3416 176.433 55.5218C175.596 54.6917 174.25 54.5462 173.256 55.5326L170.089 52.4643C172.956 49.5853 176.4 50.3547 179.019 52.8923C181.907 55.6905 182.637 59.1011 180.197 61.64C178.556 63.3132 176.676 63.4801 174.57 62.9838C172.886 62.5691 171.78 62.6944 170.545 63.9494L170.275 64.2282L167.347 61.3914L167.617 61.1126ZM164.367 63.9094C165.292 62.9143 166.891 62.9185 167.877 63.8737C168.833 64.8 168.907 66.4168 167.971 67.4023C166.987 68.3983 165.359 68.3848 164.403 67.4585C163.417 66.5033 163.372 64.8959 164.367 63.9094Z" fill="#D1D5DB"/>
</svg>
