<svg width="24" height="24" viewBox="0 0 24 24" fill="none" xmlns="http://www.w3.org/2000/svg">
<path d="M15.9846 13.4788L14.8615 12.3557C15.032 11.466 14.798 10.707 14.1596 10.0788C13.5211 9.45062 12.7551 9.2096 11.8615 9.35575L10.7384 8.2327C10.9705 8.125 11.2093 8.04743 11.4548 8C11.7003 7.95257 11.9525 7.92885 12.2115 7.92885C13.3461 7.92885 14.3092 8.32468 15.1009 9.11635C15.8926 9.90802 16.2884 10.8711 16.2884 12.0057C16.2884 12.2647 16.2663 12.517 16.2221 12.7625C16.1778 13.008 16.0987 13.2467 15.9846 13.4788ZM19.1653 16.5903L18.0615 15.5557C18.6948 15.0724 19.2615 14.5349 19.7615 13.9432C20.2615 13.3516 20.6782 12.7057 21.0115 12.0057C20.1782 10.3224 18.974 8.98492 17.399 7.99325C15.824 7.00158 14.0948 6.50575 12.2115 6.50575C11.7282 6.50575 11.2573 6.53908 10.799 6.60575C10.3407 6.67242 9.87817 6.77242 9.4115 6.90575L8.24615 5.7404C8.88203 5.48912 9.53042 5.30386 10.1913 5.18463C10.8522 5.06539 11.5256 5.00577 12.2115 5.00577C14.3602 5.00577 16.3339 5.56411 18.1326 6.68077C19.9313 7.79744 21.3147 9.30833 22.2826 11.2134C22.3493 11.3404 22.3977 11.4682 22.4278 11.5971C22.4579 11.7259 22.473 11.8622 22.473 12.0057C22.473 12.1493 22.4605 12.2855 22.4355 12.4144C22.4105 12.5432 22.3647 12.6711 22.298 12.798C21.9442 13.5506 21.4999 14.2455 20.9653 14.8826C20.4307 15.5198 19.8307 16.0891 19.1653 16.5903ZM12.2115 19.0057C10.1064 19.0057 8.17691 18.4432 6.42308 17.3182C4.66923 16.1932 3.27499 14.7115 2.24037 12.873C2.15704 12.7461 2.09615 12.6083 2.0577 12.4596C2.01923 12.3109 2 12.1596 2 12.0057C2 11.8519 2.01667 11.7032 2.05 11.5596C2.08333 11.416 2.14167 11.2756 2.225 11.1384C2.5968 10.459 3.01796 9.81185 3.48847 9.1971C3.95899 8.58235 4.50002 8.03139 5.11155 7.54422L2.85385 5.27112C2.71538 5.12241 2.64712 4.94581 2.64905 4.74132C2.65097 4.53684 2.72436 4.36217 2.86922 4.2173C3.01409 4.07243 3.18973 4 3.39615 4C3.60255 4 3.77818 4.07243 3.92305 4.2173L20.5 20.7942C20.6384 20.9326 20.7118 21.1041 20.7201 21.3086C20.7285 21.5131 20.6551 21.6929 20.5 21.848C20.3551 21.9929 20.1794 22.0653 19.973 22.0653C19.7666 22.0653 19.591 21.9929 19.4461 21.848L15.9269 18.3595C15.3372 18.5878 14.7311 18.7525 14.1086 18.8538C13.4862 18.9551 12.8538 19.0057 12.2115 19.0057ZM6.16537 8.59802C5.57947 9.05059 5.05287 9.56246 4.58555 10.1336C4.11823 10.7048 3.72688 11.3288 3.4115 12.0057C4.24483 13.6891 5.449 15.0266 7.024 16.0182C8.599 17.0099 10.3282 17.5057 12.2115 17.5057C12.641 17.5057 13.0638 17.4769 13.4798 17.4192C13.8958 17.3615 14.309 17.2724 14.7192 17.1519L13.4538 15.8557C13.2513 15.9442 13.049 16.0041 12.8471 16.0355C12.6452 16.0669 12.4333 16.0826 12.2115 16.0826C11.0769 16.0826 10.1138 15.6868 9.3221 14.8951C8.53043 14.1035 8.1346 13.1403 8.1346 12.0057C8.1346 11.7839 8.15191 11.5721 8.18653 11.3702C8.22114 11.1682 8.27948 10.966 8.36153 10.7634L6.16537 8.59802Z" fill="#4B5563"/>
</svg>
