<svg width="24" height="24" viewBox="0 0 24 24" fill="none" xmlns="http://www.w3.org/2000/svg">
<path d="M12.1984 16.0769C13.3315 16.0769 14.2939 15.6803 15.0855 14.8871C15.8772 14.0939 16.273 13.1308 16.273 11.9977C16.273 10.8646 15.8764 9.90224 15.0833 9.11058C14.2901 8.31891 13.327 7.92308 12.1939 7.92308C11.0608 7.92308 10.0984 8.31966 9.30673 9.11282C8.51506 9.90601 8.11923 10.8692 8.11923 12.0023C8.11923 13.1353 8.51581 14.0977 9.30898 14.8894C10.1022 15.681 11.0653 16.0769 12.1984 16.0769ZM12.1961 14.7C11.4461 14.7 10.8086 14.4375 10.2836 13.9125C9.75863 13.3875 9.49613 12.75 9.49613 12C9.49613 11.25 9.75863 10.6125 10.2836 10.0875C10.8086 9.56248 11.4461 9.29998 12.1961 9.29998C12.9461 9.29998 13.5836 9.56248 14.1086 10.0875C14.6336 10.6125 14.8961 11.25 14.8961 12C14.8961 12.75 14.6336 13.3875 14.1086 13.9125C13.5836 14.4375 12.9461 14.7 12.1961 14.7ZM12.1961 19C10.091 19 8.1657 18.4384 6.4202 17.3153C4.67468 16.1923 3.28142 14.7147 2.2404 12.8827C2.15707 12.7391 2.09617 12.5944 2.0577 12.4485C2.01923 12.3027 2 12.153 2 11.9995C2 11.846 2.01923 11.6965 2.0577 11.551C2.09617 11.4054 2.15707 11.2609 2.2404 11.1173C3.28142 9.28525 4.67468 7.80769 6.4202 6.68463C8.1657 5.56154 10.091 5 12.1961 5C14.3012 5 16.2265 5.56154 17.972 6.68463C19.7176 7.80769 21.1108 9.28525 22.1518 11.1173C22.2352 11.2609 22.2961 11.4056 22.3345 11.5514C22.373 11.6973 22.3922 11.847 22.3922 12.0005C22.3922 12.154 22.373 12.3035 22.3345 12.449C22.2961 12.5945 22.2352 12.7391 22.1518 12.8827C21.1108 14.7147 19.7176 16.1923 17.972 17.3153C16.2265 18.4384 14.3012 19 12.1961 19ZM12.1961 17.5C14.0795 17.5 15.8086 17.0041 17.3836 16.0125C18.9586 15.0208 20.1628 13.6833 20.9961 12C20.1628 10.3166 18.9586 8.97914 17.3836 7.98748C15.8086 6.99581 14.0795 6.49998 12.1961 6.49998C10.3128 6.49998 8.58363 6.99581 7.00863 7.98748C5.43362 8.97914 4.22946 10.3166 3.39613 12C4.22946 13.6833 5.43362 15.0208 7.00863 16.0125C8.58363 17.0041 10.3128 17.5 12.1961 17.5Z" fill="#4B5563"/>
</svg>
