<svg width="220" height="220" viewBox="0 0 220 220" fill="none" xmlns="http://www.w3.org/2000/svg">
<rect width="220" height="220" fill="#F9FAFB"/>
<path d="M129.703 41.9615L145.646 41.9746L142.443 60.041C147.958 64.1036 150.645 70.9763 149.348 77.7026L145.067 99.9015L130.187 99.8892L126.596 77.3259C125.549 70.7514 128.159 64.1278 133.408 60.0336L129.703 41.9615Z" fill="#E5E7EB"/>
<rect x="52.0645" y="99.825" width="115.855" height="78.1222" rx="6.37732" transform="rotate(0.0471621 52.0645 99.825)" fill="#E5E7EB"/>
<path fill-rule="evenodd" clip-rule="evenodd" d="M111.31 99.8738L137.906 122.335L134.081 122.799L134.455 126.421L130.726 126.772L131.004 130.507L127.275 130.858L127.553 134.594L123.824 134.944L124.102 138.68L78.1211 99.8464L111.31 99.8738Z" fill="#F3F4F6"/>
<path d="M106.811 132.902C107.176 134.465 105.903 136.098 104.528 136.42C103.152 136.741 101.344 135.826 100.979 134.262C100.615 132.699 101.667 130.616 103.043 130.295C104.878 129.867 106.446 131.338 106.811 132.902Z" fill="#F3F4F6"/>
<path d="M113.832 132.961C113.302 134.477 114.394 136.237 115.728 136.702C117.061 137.168 118.956 136.451 119.485 134.935C120.015 133.419 119.19 131.236 117.856 130.77C116.078 130.149 114.361 131.445 113.832 132.961Z" fill="#F3F4F6"/>
<path d="M120.422 141.864C120.177 146.445 115.613 147.909 109.51 147.583C103.408 147.257 99.1264 145.321 99.3711 140.74C99.6556 135.411 103.238 131.336 110.358 131.716C117.478 132.097 120.728 136.133 120.422 141.864Z" fill="#F3F4F6"/>
<path d="M108.505 139.851C108.434 141.18 107.534 142.594 106.385 142.532C105.236 142.471 103.438 141.289 103.544 139.304C103.643 137.439 105.684 136.883 107.738 137.334C108.997 137.611 108.576 138.522 108.505 139.851Z" fill="#E5E7EB"/>
<path d="M106.367 139.538C106.353 139.798 106.421 140.013 106.813 140.034C107.206 140.055 107.296 139.849 107.31 139.588C107.324 139.328 107.178 139.109 106.864 139.092C106.549 139.075 106.381 139.278 106.367 139.538Z" fill="white"/>
<path d="M111.434 140.007C111.363 141.336 112.107 142.838 113.256 142.899C114.405 142.961 116.319 141.977 116.425 139.992C116.525 138.127 114.555 137.357 112.465 137.586C111.184 137.727 111.505 138.678 111.434 140.007Z" fill="#E5E7EB"/>
<path d="M113.593 139.924C113.579 140.184 113.489 140.391 113.097 140.37C112.704 140.349 112.637 140.134 112.651 139.874C112.665 139.613 112.833 139.411 113.147 139.428C113.461 139.444 113.607 139.664 113.593 139.924Z" fill="white"/>
<rect x="58.9824" y="88.1389" width="57.9273" height="11.6918" rx="1.06289" transform="rotate(0.0471621 58.9824 88.1389)" fill="#E5E7EB"/>
<rect x="55.252" y="79.6399" width="52.0815" height="8.5031" rx="1.06289" transform="rotate(0.0471621 55.252 79.6399)" fill="#E5E7EB"/>
<rect x="62.1602" y="71.1748" width="52.0815" height="8.5031" rx="1.06289" transform="rotate(0.0471621 62.1602 71.1748)" fill="#E5E7EB"/>
</svg>
