<svg width="141" height="140" viewBox="0 0 141 140" fill="none" xmlns="http://www.w3.org/2000/svg">
<path fill-rule="evenodd" clip-rule="evenodd" d="M44.5 20C31.2452 20 20.5 30.7452 20.5 44V45C20.5 56.9621 29.2514 66.8802 40.701 68.701L48 76L55 69H96.5C109.755 69 120.5 58.2548 120.5 45V44C120.5 30.7452 109.755 20 96.5 20H44.5Z" fill="#F3F4F6"/>
<path fill-rule="evenodd" clip-rule="evenodd" d="M75 74C64.7827 74 56.5 82.2827 56.5 92.5C56.5 102.717 64.7827 111 75 111H86.5L94.5 119L102.507 110.993C112.49 110.725 120.5 102.548 120.5 92.5C120.5 82.2827 112.217 74 102 74H75Z" fill="#F3F4F6"/>
<circle cx="58.5" cy="45" r="3" fill="#E5E7EB"/>
<circle cx="70.5" cy="45" r="3" fill="#E5E7EB"/>
<circle cx="82.5" cy="45" r="3" fill="#E5E7EB"/>
<circle cx="76.5" cy="93" r="3" fill="#E5E7EB"/>
<circle cx="88.5" cy="93" r="3" fill="#E5E7EB"/>
<circle cx="100.5" cy="93" r="3" fill="#E5E7EB"/>
</svg>
