<svg width="746" height="340" viewBox="0 0 746 340" fill="none" xmlns="http://www.w3.org/2000/svg">
<g clip-path="url(#clip0_28788_28119)">
<rect width="102.494" height="189.553" rx="8" transform="matrix(0.967453 -0.25305 0.24992 0.968267 58.375 94.0405)" fill="#FFE7D1"/>
<path d="M174.536 160.438C173.432 156.16 176.002 151.786 180.277 150.667L222.373 139.657C226.648 138.539 231.008 141.1 232.112 145.378L256.085 238.256L198.509 253.316L174.536 160.438Z" fill="#FFE7D1"/>
<path d="M20.0755 187.089C18.9713 182.811 21.5413 178.437 25.8158 177.318L75.1091 164.425C79.3835 163.307 83.7438 165.869 84.848 170.147L112.145 275.905L47.3727 292.847L20.0755 187.089Z" fill="#FFE7D1"/>
<rect width="16.5313" height="19.1216" rx="4" transform="matrix(0.967453 -0.25305 0.24992 0.968267 80.1221 105.538)" fill="#F5C498"/>
<rect width="16.5313" height="19.1216" rx="4" transform="matrix(0.967453 -0.25305 0.24992 0.968267 104.112 99.2633)" fill="#F5C498"/>
<rect width="16.5313" height="19.1216" rx="4" transform="matrix(0.967453 -0.25305 0.24992 0.968267 128.103 92.9884)" fill="#F5C498"/>
<rect width="16.5313" height="19.1216" rx="4" transform="matrix(0.967453 -0.25305 0.24992 0.968267 87.3945 133.713)" fill="#F5C498"/>
<rect width="16.5313" height="19.1216" rx="4" transform="matrix(0.967453 -0.25305 0.24992 0.968267 111.384 127.437)" fill="#F5C498"/>
<rect width="16.5313" height="19.1216" rx="4" transform="matrix(0.967453 -0.25305 0.24992 0.968267 33.3896 187.528)" fill="#F5C498"/>
<rect width="16.5313" height="19.1216" rx="4" transform="matrix(0.967453 -0.25305 0.24992 0.968267 57.3789 181.254)" fill="#F5C498"/>
<rect width="16.5313" height="19.1216" rx="4" transform="matrix(0.967453 -0.25305 0.24992 0.968267 184.448 162.465)" fill="#F5C498"/>
<rect width="16.5313" height="19.1216" rx="4" transform="matrix(0.967453 -0.25305 0.24992 0.968267 208.438 156.191)" fill="#F5C498"/>
<rect width="16.5313" height="19.1216" rx="4" transform="matrix(0.967453 -0.25305 0.24992 0.968267 135.374 121.164)" fill="#F5C498"/>
<ellipse cx="373" cy="349.862" rx="373" ry="146.383" fill="#D7A37E"/>
<ellipse cx="373" cy="349.862" rx="373" ry="146.383" fill="url(#paint0_linear_28788_28119)"/>
<path d="M316.937 150.284C319.933 167.09 339.589 169.137 349.577 168.598L372.586 201.456C372.229 205.047 360.125 220.524 315.606 204.149C264.773 185.452 272.575 140.281 286.437 134.124C304.63 126.045 313.191 129.276 316.937 150.284Z" fill="#222327"/>
<path d="M484.252 117.253C484.252 159.694 443.351 175.47 387.558 175.47C331.765 175.47 291.788 159.694 291.788 117.253C291.788 67.8846 331.765 24.1051 387.558 24.1051C443.351 24.1051 484.252 64.1587 484.252 117.253Z" fill="white"/>
<path d="M336.735 224.82C336.735 206.733 343.248 179.442 349.042 168.058H429.84C435.465 178.16 440.94 203.655 440.531 224.82C440.02 251.277 412.921 253.201 387.866 254.163C362.812 255.125 336.735 247.429 336.735 224.82Z" fill="white"/>
<path d="M346.696 259.427C341.551 249.935 336.735 244.548 336.735 221.386L370.911 231.34C376.302 231.251 387.375 233.214 388.537 241.774C389.99 252.475 385.119 265.718 382.786 267.299C380.919 268.563 374.481 268.284 371.495 267.986L360.031 265.808C355.83 267.742 351.342 267.999 346.696 259.427Z" fill="white"/>
<path d="M430.498 259.427C435.643 249.935 440.459 244.548 440.459 221.386L406.284 231.34C400.892 231.251 389.819 233.214 388.657 241.774C387.205 252.475 392.075 265.718 394.408 267.299C396.275 268.563 402.714 268.284 405.7 267.986L417.163 265.808C421.364 267.742 425.853 267.999 430.498 259.427Z" fill="white"/>
<path d="M349.317 172.368L346.106 171.83L343.431 178.832L343.966 182.603L349.317 172.368Z" fill="#222327"/>
<path d="M383.823 266.542C383.823 271.363 379.607 273.635 366.486 273.635C353.365 273.635 345.297 271.909 345.297 267.088C345.297 262.267 346.153 256.937 364.025 256.937C377.146 256.937 383.823 261.721 383.823 266.542Z" fill="white"/>
<path d="M394.525 266.542C394.525 271.363 398.74 273.635 411.861 273.635C424.982 273.635 433.051 271.909 433.051 267.088C433.051 262.267 432.195 256.937 414.323 256.937C401.202 256.937 394.525 261.721 394.525 266.542Z" fill="white"/>
<rect width="38.5609" height="49.3747" rx="19.2804" transform="matrix(0.92957 -0.368645 0.364428 0.931231 413.188 175.224)" fill="#222327"/>
<path d="M384.872 26.1173C388.434 38.4683 379.015 52.0779 368.218 55.2336C357.421 58.3894 342.671 51.8442 339.108 39.4933C335.546 27.1423 343.024 10.0293 353.821 6.8735C368.218 2.66549 381.309 13.7664 384.872 26.1173Z" fill="#222327"/>
<path d="M390.807 26.1173C387.245 38.4683 396.664 52.0779 407.461 55.2336C418.258 58.3894 433.008 51.8442 436.571 39.4933C440.133 27.1423 432.655 10.0293 421.858 6.8735C407.461 2.66549 394.369 13.7664 390.807 26.1173Z" fill="#222327"/>
<path d="M456.492 116.537C456.492 147.617 426.406 159.17 385.366 159.17C344.326 159.17 314.92 147.617 314.92 116.537C314.92 80.384 344.326 48.324 385.366 48.324C426.406 48.324 456.492 77.6555 456.492 116.537Z" fill="#F3D6DD"/>
<path d="M371.222 110.146C371.222 120.435 364.639 131.722 355.441 131.722C346.242 131.722 331.383 123.338 331.383 107.969C331.383 93.531 347.435 88.3961 364.023 91.0327C374.19 92.6487 371.222 99.8569 371.222 110.146Z" fill="#222327"/>
<path d="M363.525 109.105C363.525 110.649 363.063 111.9 360.75 111.9C358.436 111.9 357.974 110.649 357.974 109.105C357.974 107.562 358.899 106.311 360.75 106.311C362.6 106.311 363.525 107.562 363.525 109.105Z" fill="white"/>
<path d="M399.207 110.145C399.207 120.434 405.789 131.721 414.988 131.721C424.186 131.721 439.046 123.338 439.046 107.969C439.046 93.5308 422.993 88.3959 406.406 91.0325C396.239 92.6484 399.207 99.8566 399.207 110.145Z" fill="#222327"/>
<path d="M406.903 109.105C406.903 110.649 407.366 111.9 409.679 111.9C411.992 111.9 412.455 110.649 412.455 109.105C412.455 107.562 411.53 106.311 409.679 106.311C407.829 106.311 406.903 107.562 406.903 109.105Z" fill="white"/>
<path d="M374.725 124.949C374.119 124.063 372.91 123.835 372.024 124.44C371.138 125.045 370.911 126.254 371.516 127.14L374.725 124.949ZM384.892 122.812L386.731 122.185C386.462 121.398 385.723 120.87 384.892 120.87C384.061 120.87 383.322 121.398 383.053 122.185L384.892 122.812ZM398.268 127.14C398.874 126.254 398.646 125.045 397.76 124.44C396.874 123.835 395.665 124.063 395.059 124.949L398.268 127.14ZM371.516 127.14C372.022 127.881 372.935 128.867 374.159 129.682C375.394 130.504 377.051 131.219 379.006 131.219V127.333C378.018 127.333 377.1 126.971 376.312 126.447C375.512 125.915 374.954 125.285 374.725 124.949L371.516 127.14ZM379.006 131.219C381.44 131.219 383.233 129.48 384.33 128.019C385.494 126.47 386.315 124.659 386.731 123.44L383.053 122.185C382.734 123.12 382.083 124.541 381.223 125.685C380.297 126.918 379.515 127.333 379.006 127.333V131.219ZM383.053 123.44C383.47 124.659 384.29 126.47 385.454 128.019C386.551 129.48 388.344 131.219 390.778 131.219V127.333C390.269 127.333 389.487 126.918 388.561 125.685C387.701 124.541 387.05 123.12 386.731 122.185L383.053 123.44ZM390.778 131.219C392.733 131.219 394.39 130.504 395.625 129.682C396.849 128.867 397.763 127.881 398.268 127.14L395.059 124.949C394.83 125.285 394.272 125.915 393.472 126.447C392.684 126.971 391.766 127.333 390.778 127.333V131.219Z" fill="#222327"/>
<path d="M394.692 121.151C394.692 122.635 388.094 124.52 385.773 125.137C385.248 125.277 384.705 125.277 384.18 125.137C381.859 124.52 375.261 122.635 375.261 121.151C375.261 119.351 380.633 117.425 384.976 117.425C389.32 117.425 394.692 119.351 394.692 121.151Z" fill="#222327"/>
<path d="M383.822 73.2567C356.823 73.2567 346.901 63.7405 345.296 58.1744L358.138 44.1694L385.963 39.3215L424.489 58.1744C422.17 62.6632 410.851 73.2567 383.822 73.2567Z" fill="#222327"/>
<path fill-rule="evenodd" clip-rule="evenodd" d="M387.558 175.604C443.351 175.604 484.252 159.828 484.252 117.386C484.252 64.2918 443.351 24.2383 387.558 24.2383C331.765 24.2383 291.788 68.0178 291.788 117.386C291.788 159.828 331.765 175.604 387.558 175.604ZM385.367 159.302C426.407 159.302 456.493 147.749 456.493 116.669C456.493 77.7875 426.407 48.456 385.367 48.456C344.327 48.456 314.921 80.5161 314.921 116.669C314.921 147.749 344.327 159.302 385.367 159.302Z" fill="white"/>
<path fill-rule="evenodd" clip-rule="evenodd" d="M431.252 172.367C418.319 175.216 403.55 176.512 387.557 176.512C372.947 176.512 359.422 175.43 347.415 173.071C342.094 185.882 336.735 209.862 336.735 226.269C336.735 248.878 362.812 256.574 387.866 255.612C412.921 254.65 440.02 252.726 440.531 226.269C440.906 206.882 436.343 183.862 431.252 172.367Z" fill="white"/>
<path fill-rule="evenodd" clip-rule="evenodd" d="M336.735 220.887C347.703 224.844 364.527 228.037 388.527 227.312C409.245 226.686 426.788 224.101 440.427 221.069C440.153 202.636 435.875 181.981 431.14 171.291C418.207 174.14 403.438 175.436 387.446 175.436C372.836 175.436 359.31 174.355 347.303 171.995C342.432 183.725 337.529 204.817 336.735 220.887Z" fill="#222327"/>
<path d="M410.578 202.533C413.03 180.353 424.225 174.084 434.748 171.032C439.029 169.79 445.985 169.955 449.731 171.571C454.265 173.527 459.362 177.496 463.108 186.653C466.854 195.81 471.577 209.535 473.718 223.54L473.746 223.727C475.888 237.736 479.153 259.091 436.536 259.091C401.424 259.091 408.345 222.722 410.578 202.533Z" fill="#3786E2"/>
<path d="M429.011 216.844C418.83 211.178 415.124 198.306 420.732 188.094L421.24 187.17C425.922 178.645 435.81 174.464 445.172 177.049C458.204 180.648 464.565 195.472 458.206 207.424L456.764 210.132C451.617 219.505 439.87 222.887 430.526 217.687L429.011 216.844Z" fill="#222327"/>
<path d="M343.431 188.528C341.719 190.683 339.329 204.508 338.08 210.613C337.545 210.613 334.335 209.715 333.8 209.536C333.264 203.072 338.08 188.528 343.431 188.528Z" fill="#1A1A1C"/>
<rect x="370.72" y="180.988" width="5.35087" height="16.1596" rx="2.67543" fill="white"/>
<path fill-rule="evenodd" clip-rule="evenodd" d="M370.721 193.915V194.472C370.721 195.95 371.919 197.148 373.396 197.148C374.874 197.148 376.072 195.95 376.072 194.472V193.915H370.721Z" fill="#256FC5"/>
<rect x="397.475" y="180.988" width="5.35087" height="16.1596" rx="2.67543" fill="white"/>
<path fill-rule="evenodd" clip-rule="evenodd" d="M397.475 193.915V194.472C397.475 195.95 398.672 197.148 400.15 197.148C401.628 197.148 402.825 195.95 402.825 194.472V193.915H397.475Z" fill="#256FC5"/>
<path d="M387.842 257.476C386.237 269.865 381.956 272.02 377.676 272.558L379.281 262.324C381.421 259.451 388.673 251.067 387.842 257.476Z" fill="white"/>
<path d="M388.979 257.678C390.584 270.067 395.334 273.366 404.966 273.366L397.541 262.526C395.4 259.653 388.149 251.269 388.979 257.678Z" fill="white"/>
<path fill-rule="evenodd" clip-rule="evenodd" d="M452.44 233.267C453.74 234.76 454.48 236.754 454.666 239.113C455.026 243.702 450.708 245.762 444.636 246.245C438.563 246.728 434.078 245.369 433.718 240.78C433.549 238.622 433.939 236.597 434.931 234.912C434.731 234.683 434.568 234.419 434.457 234.123C433.891 232.616 434.657 230.405 435.974 229.904C437.387 229.366 438.791 230.073 439.581 231.154C440.686 230.742 441.953 230.465 443.388 230.351C444.783 230.24 446.048 230.29 447.184 230.485C447.734 229.169 449.087 228.087 450.673 228.417C452.052 228.703 453.154 230.766 452.83 232.344C452.761 232.682 452.625 232.992 452.44 233.267Z" fill="#2D68AE"/>
<path d="M442.628 238.687C442.732 240.019 442.029 241.544 440.885 241.635C439.742 241.726 437.81 240.788 437.653 238.8C437.507 236.932 439.45 236.108 441.539 236.286C442.819 236.394 442.523 237.356 442.628 238.687Z" fill="#3475C2"/>
<path d="M440.473 238.658C440.494 238.919 440.588 239.124 440.979 239.093C441.37 239.062 441.432 238.845 441.411 238.584C441.391 238.323 441.218 238.124 440.905 238.149C440.592 238.174 440.453 238.398 440.473 238.658Z" fill="white"/>
<path d="M445.542 238.455C445.646 239.787 446.579 241.182 447.723 241.091C448.866 241 450.628 239.768 450.472 237.779C450.325 235.911 448.277 235.406 446.242 235.911C444.995 236.221 445.437 237.124 445.542 238.455Z" fill="#3475C2"/>
<path d="M447.664 238.087C447.685 238.348 447.623 238.565 447.233 238.597C446.842 238.628 446.747 238.423 446.727 238.162C446.706 237.901 446.846 237.677 447.158 237.652C447.471 237.627 447.644 237.826 447.664 238.087Z" fill="white"/>
<rect width="23.965" height="44.0725" rx="6" transform="matrix(0.984609 0.174771 -0.172533 0.985004 550.974 187.465)" fill="#DC9759"/>
<ellipse cx="38.0135" cy="38.2516" rx="38.0135" ry="38.2516" transform="matrix(0.984609 0.174771 -0.172533 0.985004 535.076 129.747)" fill="#54B858"/>
<ellipse cx="38.0135" cy="38.2516" rx="38.0135" ry="38.2516" transform="matrix(0.984609 0.174771 -0.172533 0.985004 535.076 129.747)" fill="url(#paint1_linear_28788_28119)"/>
<rect width="23.9789" height="44.0472" rx="6" transform="matrix(0.938958 0.344031 -0.340018 0.940419 648.901 211.825)" fill="#DC9759"/>
<ellipse cx="38.0355" cy="38.2296" rx="38.0355" ry="38.2296" transform="matrix(0.938958 0.344031 -0.340018 0.940419 643.202 152.206)" fill="#54B858"/>
<ellipse cx="38.0355" cy="38.2296" rx="38.0355" ry="38.2296" transform="matrix(0.938958 0.344031 -0.340018 0.940419 643.202 152.206)" fill="url(#paint2_linear_28788_28119)"/>
</g>
<defs>
<linearGradient id="paint0_linear_28788_28119" x1="373" y1="203.479" x2="373" y2="496.245" gradientUnits="userSpaceOnUse">
<stop stop-color="#E18745"/>
<stop offset="1" stop-color="#D7A37E" stop-opacity="0"/>
</linearGradient>
<linearGradient id="paint1_linear_28788_28119" x1="38.0135" y1="0" x2="38.0135" y2="76.5031" gradientUnits="userSpaceOnUse">
<stop stop-color="#32A737"/>
<stop offset="1" stop-color="#54B858" stop-opacity="0"/>
</linearGradient>
<linearGradient id="paint2_linear_28788_28119" x1="38.0355" y1="0" x2="38.0355" y2="76.4593" gradientUnits="userSpaceOnUse">
<stop stop-color="#32A737"/>
<stop offset="1" stop-color="#54B858" stop-opacity="0"/>
</linearGradient>
<clipPath id="clip0_28788_28119">
<rect width="746" height="340" fill="white"/>
</clipPath>
</defs>
</svg>
