<svg width="198" height="66" viewBox="0 0 198 66" fill="none" xmlns="http://www.w3.org/2000/svg">
<rect y="6.49219" width="51.7647" height="51.9399" rx="14.4658" fill="#3692FF"/>
<path d="M24.9943 20.9521C25.6405 23.185 23.932 25.6456 21.9736 26.2161C20.0152 26.7867 17.3397 25.6033 16.6935 23.3704C16.0474 21.1374 17.4038 18.0434 19.3622 17.4729C21.9736 16.7121 24.3482 18.7191 24.9943 20.9521Z" fill="#222327"/>
<path d="M26.0711 20.9521C25.4249 23.185 27.1334 25.6456 29.0918 26.2161C31.0502 26.7867 33.7258 25.6033 34.3719 23.3704C35.0181 21.1374 33.6616 18.0434 31.7032 17.4729C29.0918 16.7121 26.7172 18.7191 26.0711 20.9521Z" fill="#222327"/>
<path d="M38.1976 37.2651C38.1976 42.9448 32.6285 45.056 25.0319 45.056C17.4353 45.056 11.9922 42.9448 11.9922 37.2651C11.9922 30.6585 17.4353 24.7998 25.0319 24.7998C32.6285 24.7998 38.1976 30.1599 38.1976 37.2651Z" fill="#F3D6DD"/>
<path d="M22.5173 36.1438C22.5173 38.004 21.3233 40.0446 19.6548 40.0446C17.9863 40.0446 15.291 38.529 15.291 35.7503C15.291 33.14 18.2027 32.2117 21.2115 32.6883C23.0556 32.9805 22.5173 34.2837 22.5173 36.1438Z" fill="#222327"/>
<path d="M21.1223 35.9564C21.1223 36.2354 21.0383 36.4616 20.6187 36.4616C20.1992 36.4616 20.1152 36.2354 20.1152 35.9564C20.1152 35.6774 20.2831 35.4512 20.6187 35.4512C20.9544 35.4512 21.1223 35.6774 21.1223 35.9564Z" fill="white"/>
<path d="M27.5921 36.1438C27.5921 38.004 28.7861 40.0446 30.4546 40.0446C32.1231 40.0446 34.8184 38.529 34.8184 35.7503C34.8184 33.14 31.9067 32.2117 28.8979 32.6883C27.0538 32.9805 27.5921 34.2837 27.5921 36.1438Z" fill="#222327"/>
<path d="M28.9891 35.9564C28.9891 36.2354 29.073 36.4616 29.4926 36.4616C29.9122 36.4616 29.9961 36.2354 29.9961 35.9564C29.9961 35.6774 29.8283 35.4512 29.4926 35.4512C29.1569 35.4512 28.9891 35.6774 28.9891 35.9564Z" fill="white"/>
<path d="M23.1318 38.8339C23.0302 38.6857 22.8276 38.6478 22.6793 38.7494C22.531 38.851 22.4932 39.0536 22.5948 39.2019L23.1318 38.8339ZM24.9985 38.4336L25.3064 38.3281C25.2614 38.1965 25.1376 38.1081 24.9985 38.1081C24.8594 38.1081 24.7357 38.1965 24.6906 38.3281L24.9985 38.4336ZM27.4023 39.2019C27.5039 39.0536 27.466 38.851 27.3178 38.7494C27.1695 38.6478 26.9669 38.6857 26.8653 38.8339L27.4023 39.2019ZM22.5948 39.2019C22.6847 39.3331 22.848 39.509 23.067 39.6543C23.2881 39.8009 23.5833 39.9277 23.9309 39.9277V39.2767C23.7447 39.2767 23.5729 39.2087 23.4269 39.1119C23.2789 39.0137 23.1753 38.8975 23.1318 38.8339L22.5948 39.2019ZM23.9309 39.9277C24.3586 39.9277 24.6768 39.6226 24.8748 39.3599C25.0838 39.0825 25.2316 38.7576 25.3064 38.5391L24.6906 38.3281C24.632 38.4991 24.5129 38.7585 24.3549 38.9681C24.1859 39.1923 24.037 39.2767 23.9309 39.2767V39.9277ZM24.6906 38.5391C24.7655 38.7576 24.9132 39.0825 25.1223 39.3599C25.3203 39.6226 25.6384 39.9277 26.0662 39.9277V39.2767C25.9601 39.2767 25.8111 39.1923 25.6421 38.9681C25.4842 38.7585 25.365 38.4991 25.3064 38.3281L24.6906 38.5391ZM26.0662 39.9277C26.4137 39.9277 26.709 39.8009 26.93 39.6543C27.149 39.509 27.3124 39.3331 27.4023 39.2019L26.8653 38.8339C26.8218 38.8975 26.7182 39.0137 26.5702 39.1119C26.4242 39.2087 26.2524 39.2767 26.0662 39.2767V39.9277Z" fill="#222327"/>
<path d="M26.7756 38.1336C26.7756 38.4043 25.5565 38.7489 25.1462 38.8573C25.0585 38.8804 24.9681 38.8804 24.8804 38.8573C24.4701 38.7489 23.251 38.4043 23.251 38.1336C23.251 37.8081 24.2254 37.46 25.0133 37.46C25.8012 37.46 26.7756 37.8081 26.7756 38.1336Z" fill="#222327"/>
<path d="M24.8026 29.4751C19.9053 29.4751 18.1056 27.7546 17.8145 26.7483L20.1438 24.2163L25.1908 23.3398L32.1789 26.7483C31.7583 27.5599 29.7052 29.4751 24.8026 29.4751Z" fill="#222327"/>
<path fill-rule="evenodd" clip-rule="evenodd" d="M25.4806 47.8806C35.6006 47.8806 43.0196 45.0284 43.0196 37.3552C43.0196 27.7561 35.6006 20.5146 25.4806 20.5146C15.3605 20.5146 8.10938 28.4297 8.10938 37.3552C8.10938 45.0284 15.3605 47.8806 25.4806 47.8806ZM25.0827 44.9337C32.5268 44.9337 37.984 42.845 37.984 37.2259C37.984 30.1964 32.5268 24.8934 25.0827 24.8934C17.6387 24.8934 12.3049 30.6897 12.3049 37.2259C12.3049 42.845 17.6387 44.9337 25.0827 44.9337Z" fill="white"/>
<path d="M91.7436 27.6676H95.7243V32.3117H91.7436V41.7326H85.7726V35.8943C81.5266 36.7567 77.3137 37.2212 71.1768 37.2212H64.2107V32.6766H66.8645V23.2557H64.8741V18.7774H83.1852V23.2557H81.1948V32.179C82.8203 31.9799 84.3462 31.7477 85.7726 31.4824V18.4457H91.7436V27.6676ZM67.4947 49.6276V39.7754H73.5984V45.0166H92.4071V49.6276H67.4947ZM72.8355 32.6766C73.6648 32.6434 74.4609 32.6434 75.2238 32.6102V23.2557H72.8355V32.6766ZM128.896 29.9896V34.6337H124.916V49.6276H118.945V44.4195C114.699 45.6469 110.486 46.3435 104.349 46.3435H98.378V19.4409H115.362V23.9191H104.349V41.7989C110.42 41.7989 114.732 41.2018 118.945 40.0076V18.4457H124.916V29.9896H128.896ZM162.069 29.9896V34.6337H158.088V49.6276H152.117V18.4457H158.088V29.9896H162.069ZM131.55 46.3435V19.4409H148.899V46.3435H131.55ZM137.521 41.7989H142.995V23.9854H137.521V41.7989ZM187.445 18.4457H193.251V36.425H187.445V18.4457ZM162.732 32.8756C166.613 32.0795 169.532 30.8521 171.158 29.293L164.722 29.6911V25.3787H172.551V23.2557H165.386V18.7774H178.356V24.7484H180.247V18.6115H185.886V36.425H180.247V29.3925H177.494C175.736 32.8092 171.324 35.6289 164.623 37.3207L162.732 32.8756ZM166.348 44.8839C174.541 44.5854 176.93 42.8936 176.93 40.0076V37.4865H182.901V40.5384C182.901 41.3345 182.801 42.0975 182.602 42.7941C186.45 43.0595 190.265 43.5902 193.251 44.2868L191.658 49.6276C188.242 48.4334 183.465 47.2723 179.617 46.6421C176.863 48.4997 172.452 49.3954 166.978 49.6276L166.348 44.8839Z" fill="#3692FF"/>
</svg>
