<svg width="564" height="26" viewBox="0 0 564 26" fill="none" xmlns="http://www.w3.org/2000/svg">
<path d="M12.0156 6.375V20.2969H10.7812V6.375H12.0156ZM1.375 16.9375V7.5625H2.59375V11.2344H6.73438V7.5625H7.9375V16.9375H1.375ZM2.59375 15.9062H6.73438V12.2188H2.59375V15.9062ZM21.6406 7.15625V12.8125H15.125V7.15625H21.6406ZM16.3281 11.8438H20.4375V8.15625H16.3281V11.8438ZM16.8281 15.2188V14.2344H25.8438V17.5469H18.0625V19.1094H26.3438V20.1094H16.8438V16.6406H24.6406V15.2188H16.8281ZM24.6406 13.5469V6.375H25.8438V13.5469H24.6406ZM39.7344 6.39062V16.6719H38.5V11.3281H35.2188V14.2969H28.9219V7.3125H30.1406V9.78125H34.0156V7.3125H35.2188V10.2969H38.5V6.39062H39.7344ZM30.1406 13.2812H34.0156V10.75H30.1406V13.2812ZM30.75 19.9688V15.6562H31.9844V18.9375H40.0469V19.9688H30.75ZM54.0469 8.4375V9.45312H42.6719V8.4375H47.7656V6.60938H48.9688V8.4375H54.0469ZM42.0469 18.6406V17.625H47.7656V15.6719C45.2891 15.5391 43.7969 14.5781 43.8125 13.0156C43.7969 11.3672 45.5391 10.3906 48.375 10.4062C51.1719 10.3906 52.9453 11.3672 52.9375 13.0156C52.9453 14.5781 51.4219 15.5391 48.9688 15.6719V17.625H54.7656V18.6406H42.0469ZM45.0469 13.0156C45.0312 14.0703 46.3047 14.6797 48.375 14.6875C50.4219 14.6797 51.6953 14.0703 51.6875 13.0156C51.6953 11.9844 50.4219 11.375 48.375 11.375C46.3047 11.375 45.0312 11.9844 45.0469 13.0156ZM68.5781 12.8281V13.7969H55.8594V12.8281H68.5781ZM57.3906 15.8281V14.9062H66.9844V17.8594H58.6406V19.1875H67.4375V20.0781H57.4062V17.0156H65.7656V15.8281H57.3906ZM57.4688 7.6875V6.79688H66.9375V9.67188H58.7344V10.8906H67.1875V11.7812H57.5156V8.82812H65.7031V7.6875H57.4688ZM85.1875 6.375V13.8281H83.9688V6.375H85.1875ZM74.0469 10.25C74.0391 8.35156 75.5781 7.04688 77.6875 7.0625C79.7969 7.04688 81.3203 8.35156 81.3281 10.25C81.3203 12.1406 79.7969 13.4453 77.6875 13.4375C75.5781 13.4453 74.0391 12.1406 74.0469 10.25ZM75.25 10.25C75.2344 11.5156 76.2578 12.4141 77.6875 12.4219C79.1016 12.4141 80.125 11.5156 80.125 10.25C80.125 8.97656 79.1016 8.08594 77.6875 8.09375C76.2578 8.08594 75.2344 8.97656 75.25 10.25ZM76.1875 20.0781V14.5312H77.4062V16.2188H83.9688V14.5312H85.1875V20.0781H76.1875ZM77.4062 19.0781H83.9688V17.2031H77.4062V19.0781ZM94.1406 7.23438V11.125H89.3594V13.2812C91.9688 13.2891 93.3203 13.2344 94.9531 12.9375L95.0781 13.9531C93.3516 14.2344 91.9375 14.2812 89.125 14.2812H88.1406V10.1875H92.9219V8.21875H88.1094V7.23438H94.1406ZM89.7031 16.6719V15.6719H99.0625V20.2969H97.8281V16.6719H89.7031ZM95.0625 12.3438V11.3281H97.8281V9.45312H95.0625V8.45312H97.8281V6.39062H99.0625V14.9219H97.8281V12.3438H95.0625ZM108.312 8.78125V9.78125H101.344V8.78125H104.234V6.79688H105.453V8.78125H108.312ZM101.844 13.875C101.844 12.0312 103.102 10.7266 104.828 10.7188C106.578 10.7266 107.828 12.0312 107.844 13.875C107.828 15.7422 106.578 17.0547 104.828 17.0625C103.102 17.0547 101.844 15.7422 101.844 13.875ZM102.938 13.875C102.938 15.1094 103.727 15.9922 104.828 15.9844C105.938 15.9922 106.75 15.1094 106.75 13.875C106.75 12.6562 105.938 11.7656 104.828 11.75C103.727 11.7656 102.938 12.6562 102.938 13.875ZM109.031 19.5781V6.71875H110.188V12.2344H112.031V6.375H113.203V20.2656H112.031V13.25H110.188V19.5781H109.031ZM122.219 8.34375C122.211 10.2031 124.688 11.7812 127.109 12.1406L126.656 13.1094C124.492 12.7422 122.375 11.5859 121.531 9.91406C120.688 11.5859 118.57 12.7422 116.438 13.1094L115.953 12.1406C118.367 11.7812 120.836 10.2031 120.844 8.34375V8.25H116.391V7.25H126.656V8.25H122.219V8.34375ZM115.203 15.3125V14.2969H127.859V15.3125H122.109V20.2656H120.906V15.3125H115.203ZM133.156 10.3281C133.156 12.5391 134.234 14.9219 136.078 16.0156L135.375 16.9688C134.031 16.1562 133.07 14.6719 132.586 12.9766C132.078 14.8281 131.047 16.4219 129.656 17.2656L128.875 16.3438C130.797 15.2188 131.969 12.7578 131.969 10.375V7.6875H133.156V10.3281ZM134.547 12.4062V11.3594H136.906V6.67188H138.062V19.5625H136.906V12.4062H134.547ZM139.75 20.2656V6.375H140.938V20.2656H139.75ZM155.578 17.4531V18.4844H142.859V17.4531H146.016V13.7109C144.828 13.0938 144.109 12.0938 144.109 10.8281C144.109 8.67969 146.219 7.26562 149.188 7.25C152.156 7.26562 154.266 8.67969 154.266 10.8281C154.266 12.0703 153.57 13.0547 152.422 13.6719V17.4531H155.578ZM145.297 10.8281C145.289 12.3828 146.906 13.4219 149.188 13.4219C151.445 13.4219 153.078 12.3828 153.078 10.8281C153.078 9.27344 151.445 8.25 149.188 8.26562C146.906 8.25 145.289 9.27344 145.297 10.8281ZM147.219 17.4531H151.188V14.1484C150.586 14.3047 149.914 14.3906 149.188 14.3906C148.477 14.3906 147.812 14.3125 147.219 14.1562V17.4531Z" fill="#9CA3AF"/>
<path d="M552.002 15.5769C553.135 15.5769 554.098 15.1803 554.889 14.3871C555.681 13.5939 556.077 12.6308 556.077 11.4977C556.077 10.3646 555.68 9.40224 554.887 8.61058C554.094 7.81891 553.131 7.42308 551.998 7.42308C550.865 7.42308 549.902 7.81966 549.111 8.61282C548.319 9.40601 547.923 10.3692 547.923 11.5023C547.923 12.6353 548.32 13.5977 549.113 14.3894C549.906 15.181 550.869 15.5769 552.002 15.5769ZM552 14.2C551.25 14.2 550.613 13.9375 550.088 13.4125C549.563 12.8875 549.3 12.25 549.3 11.5C549.3 10.75 549.563 10.1125 550.088 9.58748C550.613 9.06248 551.25 8.79998 552 8.79998C552.75 8.79998 553.388 9.06248 553.913 9.58748C554.438 10.1125 554.7 10.75 554.7 11.5C554.7 12.25 554.438 12.8875 553.913 13.4125C553.388 13.9375 552.75 14.2 552 14.2ZM552 18.5C549.895 18.5 547.97 17.9384 546.224 16.8153C544.479 15.6923 543.085 14.2147 542.044 12.3827C541.961 12.2391 541.9 12.0944 541.862 11.9485C541.823 11.8027 541.804 11.653 541.804 11.4995C541.804 11.346 541.823 11.1965 541.862 11.051C541.9 10.9054 541.961 10.7609 542.044 10.6173C543.085 8.78525 544.479 7.30769 546.224 6.18463C547.97 5.06154 549.895 4.5 552 4.5C554.105 4.5 556.031 5.06154 557.776 6.18463C559.522 7.30769 560.915 8.78525 561.956 10.6173C562.039 10.7609 562.1 10.9056 562.139 11.0514C562.177 11.1973 562.196 11.347 562.196 11.5005C562.196 11.654 562.177 11.8035 562.139 11.949C562.1 12.0945 562.039 12.2391 561.956 12.3827C560.915 14.2147 559.522 15.6923 557.776 16.8153C556.031 17.9384 554.105 18.5 552 18.5ZM552 17C553.883 17 555.613 16.5041 557.188 15.5125C558.763 14.5208 559.967 13.1833 560.8 11.5C559.967 9.81664 558.763 8.47914 557.188 7.48748C555.613 6.49581 553.883 5.99998 552 5.99998C550.117 5.99998 548.388 6.49581 546.813 7.48748C545.238 8.47914 544.033 9.81664 543.2 11.5C544.033 13.1833 545.238 14.5208 546.813 15.5125C548.388 16.5041 550.117 17 552 17Z" fill="#4B5563"/>
</svg>
