<svg width="188" height="152" viewBox="0 0 188 152" fill="none" xmlns="http://www.w3.org/2000/svg">
<path d="M75.9355 31.6912C79.4547 40.7827 73.188 51.6828 65.1874 54.7797C57.1869 57.8765 45.5438 53.909 42.0246 44.8175C38.5054 35.726 43.0666 22.3085 51.0671 19.2116C61.7353 15.0821 72.4163 22.5997 75.9355 31.6912Z" fill="#D1D5DB"/>
<path d="M80.4463 31.2996C78.5493 40.862 86.6035 50.5168 95.0184 52.1862C103.433 53.8555 114.217 47.9377 116.114 38.3753C118.011 28.8128 111.202 16.384 102.787 14.7146C91.5663 12.4887 82.3432 21.7371 80.4463 31.2996Z" fill="#D1D5DB"/>
<path d="M163.164 101.017C163.164 133.188 131.953 145.146 89.3797 145.146C46.806 145.146 16.3011 133.188 16.3011 101.017C16.3011 63.5947 46.806 30.4093 89.3797 30.4093C131.953 30.4093 163.164 60.7704 163.164 101.017Z" fill="#F3F4F6"/>
<path d="M143.13 100.646C143.13 124.23 121.263 132.996 91.4359 132.996C61.6085 132.996 40.2366 124.23 40.2366 100.646C40.2366 73.2128 61.6085 48.8853 91.4359 48.8853C121.263 48.8853 143.13 71.1424 143.13 100.646Z" fill="#F9FAFB"/>
<path d="M88.6195 97.356C88.6195 105.155 83.8638 113.711 77.2179 113.711C70.5721 113.711 59.8364 107.356 59.8364 95.706C59.8364 84.7618 71.4341 80.8696 83.4184 82.8681C90.7637 84.093 88.6195 89.557 88.6195 97.356Z" fill="#D1D5DB"/>
<path d="M83.0604 96.568C83.0604 97.7379 82.7262 98.6863 81.0549 98.6863C79.3836 98.6863 79.0493 97.7379 79.0493 96.568C79.0493 95.3982 79.7178 94.4498 81.0549 94.4498C82.3919 94.4498 83.0604 95.3982 83.0604 96.568Z" fill="#F3F4F6"/>
<path d="M108.287 97.356C108.287 105.155 112.695 113.711 118.854 113.711C125.014 113.711 134.965 107.356 134.965 95.706C134.965 84.7618 124.215 80.8696 113.107 82.8681C106.299 84.093 108.287 89.557 108.287 97.356Z" fill="#D1D5DB"/>
<path d="M113.44 96.568C113.44 97.7379 113.749 98.6863 115.298 98.6863C116.848 98.6863 117.157 97.7379 117.157 96.568C117.157 95.3982 116.538 94.4498 115.298 94.4498C114.059 94.4498 113.44 95.3982 113.44 96.568Z" fill="#F3F4F6"/>
<path d="M91.0611 108.715C90.6779 108.158 89.9153 108.017 89.3578 108.4C88.8003 108.783 88.6591 109.546 89.0424 110.103L91.0611 108.715ZM99.0345 106.96L100.193 106.561C100.023 106.067 99.5575 105.735 99.0345 105.735C98.5115 105.735 98.0461 106.067 97.8761 106.561L99.0345 106.96ZM109.027 110.103C109.41 109.546 109.269 108.783 108.711 108.4C108.154 108.017 107.391 108.158 107.008 108.715L109.027 110.103ZM89.0424 110.103C89.4107 110.639 90.0847 111.364 90.9903 111.962C91.9035 112.566 93.1178 113.084 94.5431 113.084V110.634C93.7228 110.634 92.9721 110.336 92.3414 109.919C91.7031 109.497 91.2543 108.996 91.0611 108.715L89.0424 110.103ZM94.5431 113.084C96.2694 113.084 97.5701 111.855 98.3974 110.761C99.2659 109.612 99.8814 108.264 100.193 107.358L97.8761 106.561C97.6262 107.288 97.1188 108.39 96.4434 109.283C95.7268 110.231 95.0626 110.634 94.5431 110.634V113.084ZM97.8761 107.358C98.1877 108.264 98.8031 109.612 99.6716 110.761C100.499 111.855 101.8 113.084 103.526 113.084V110.634C103.006 110.634 102.342 110.231 101.626 109.283C100.95 108.39 100.443 107.288 100.193 106.561L97.8761 107.358ZM103.526 113.084C104.951 113.084 106.166 112.566 107.079 111.962C107.984 111.364 108.658 110.639 109.027 110.103L107.008 108.715C106.815 108.996 106.366 109.497 105.728 109.919C105.097 110.336 104.346 110.634 103.526 110.634V113.084Z" fill="#D1D5DB"/>
<path d="M106.513 105.701C106.513 106.849 101.265 108.314 99.5997 108.75C99.2705 108.837 98.9274 108.837 98.5982 108.75C96.9329 108.314 91.6852 106.849 91.6852 105.701C91.6852 104.336 95.7843 102.877 99.0989 102.877C102.414 102.877 106.513 104.336 106.513 105.701Z" fill="#D1D5DB"/>
<path d="M100.187 68.2276C68.6752 70.2088 60.9894 60.1499 59.8365 55.9056L77.5138 46.048L97.4968 42.3514L125.166 56.7271C123.5 60.1499 119.565 67.0093 100.187 68.2276Z" fill="#D1D5DB"/>
<path fill-rule="evenodd" clip-rule="evenodd" d="M93.201 145.248C133.571 145.248 163.166 133.29 163.166 101.118C163.166 60.8722 133.571 30.5111 93.201 30.5111C52.8311 30.5111 23.9053 63.6965 23.9053 101.118C23.9053 133.29 52.8311 145.248 93.201 145.248ZM91.6154 132.892C121.311 132.892 143.08 124.135 143.08 100.576C143.08 71.1032 121.311 48.8695 91.6154 48.8695C61.9202 48.8695 40.6431 73.1715 40.6431 100.576C40.6431 124.135 61.9202 132.892 91.6154 132.892Z" fill="#F3F4F6"/>
<path fill-rule="evenodd" clip-rule="evenodd" d="M7.38824 74.671C11.8652 69.6581 19.9342 70.4896 23.2947 76.3102L28.2163 84.8346C31.5768 90.6552 28.2624 98.0589 21.6827 99.4296L19.5427 99.8754C19.4201 99.9009 19.2975 99.9241 19.1749 99.9448C19.1287 100.072 19.0701 100.196 19.0013 100.314C17.0527 103.664 16.125 111.381 25.726 120.312C35.0809 129.014 43.1679 129.647 46.8905 128.718C47.1544 128.652 47.4285 128.633 47.693 128.666L48.1802 127.7C51.2071 121.7 59.2164 120.414 63.9689 125.167L70.9291 132.127C75.6815 136.88 74.3963 144.889 68.3956 147.916L67.9461 148.143C67.8228 148.338 67.6469 148.508 67.4182 148.632C55.5661 155.064 28.9229 151.955 14.3493 131.689C-3.89153 106.323 -2.05391 84.755 5.13824 77.0594C5.26092 76.9282 5.40062 76.8274 5.5501 76.7558C5.6723 76.6013 5.79968 76.4497 5.93221 76.3013L7.38824 74.671Z" fill="#D1D5DB"/>
<path d="M148.291 28.9947C150.266 24.6076 152.008 23.7117 154.641 23.3425C156.739 22.9629 158.428 22.493 159.123 20.9122C159.835 19.2938 159.057 17.6936 157.455 16.9441C155.895 16.303 153.985 16.7654 153.119 18.6307L147.248 16.0482C149.745 10.678 154.81 9.98637 159.649 12.1596C164.973 14.4562 167.686 18.7041 165.654 23.4254C164.259 26.4951 161.813 27.6652 158.667 28.0781C156.175 28.3298 154.738 29.0451 153.711 31.3786L153.479 31.9055L148.06 29.5216L148.291 28.9947ZM145.323 34.517C146.097 32.6562 148.248 31.8505 150.092 32.6617C151.861 33.4398 152.759 35.5864 151.948 37.4306C151.153 39.2373 148.948 40.064 147.179 39.2859C145.334 38.4748 144.491 36.3071 145.323 34.517Z" fill="#D1D5DB"/>
<path d="M165.903 41.6951C168.484 39.0764 169.97 38.8974 171.955 39.3328C173.56 39.6187 174.895 39.731 175.814 38.7831C176.754 37.8126 176.622 36.459 175.673 35.4961C174.726 34.622 173.234 34.4455 172.118 35.5521L168.597 32.1406C171.814 28.9562 175.628 29.8073 178.517 32.651C181.721 35.7119 182.536 39.4772 179.825 42.3202C178.009 44.149 175.946 44.3371 173.581 43.7966C171.729 43.3146 170.509 43.4449 169.153 44.8442L168.847 45.1602L165.597 42.0111L165.903 41.6951ZM162.308 44.8632C163.357 43.7354 165.113 43.73 166.219 44.8016C167.279 45.8294 167.352 47.6062 166.28 48.7121C165.23 49.7954 163.43 49.8016 162.37 48.7737C161.264 47.7022 161.236 45.9246 162.308 44.8632Z" fill="#D1D5DB"/>
</svg>
