<svg width="28" height="24" viewBox="0 0 28 24" fill="none" xmlns="http://www.w3.org/2000/svg">
<path d="M4.05406 14.2232C4.03495 14.2063 4.01689 14.1904 3.99984 14.1753V14.0686L3.76552 13.8343C2.30711 12.3759 1.4665 10.4428 1.4665 8.4V8.14577C1.59299 4.18597 4.96682 0.933333 8.93317 0.933333C9.57088 0.933333 10.3743 1.15125 11.1539 1.57104C11.9043 1.9751 12.5753 2.53553 13.0226 3.17784C13.4574 4.15492 14.8557 4.14051 15.2621 3.13462C15.6412 2.45729 16.2982 1.87138 17.0562 1.44869C17.8352 1.01422 18.6349 0.8 19.1998 0.8C23.2833 0.8 26.5398 4.03647 26.6665 8.14539V8.4C26.6665 10.5893 25.8175 12.5041 24.3926 13.8103L24.1332 14.0481V14.1452C24.108 14.1662 24.0817 14.1883 24.0545 14.2113C23.8471 14.3862 23.5653 14.629 23.2291 14.9213C22.5559 15.5066 21.654 16.3 20.6709 17.1665C20.3559 17.4441 20.0326 17.7292 19.7056 18.0176C17.9914 19.5292 16.1782 21.1282 14.9496 22.1894C14.4478 22.6035 13.6852 22.6035 13.1834 22.1894C11.7183 20.924 9.39008 18.8951 7.40962 17.1643C6.41822 16.2979 5.51451 15.5066 4.85049 14.9238C4.51841 14.6323 4.24669 14.3933 4.05406 14.2232Z" fill="#FF68CC" stroke="#FF68CC" stroke-width="1.6"/>
</svg>
